<?xml version="1.0" encoding="utf-8"?>
<!-- Svg Vector Icons : http://www.onlinewebfonts.com/icon -->
<!DOCTYPE svg PUBLIC "-//W3C//DTD SVG 1.1//EN" "http://www.w3.org/Graphics/SVG/1.1/DTD/svg11.dtd">
<svg version="1.1" xmlns="http://www.w3.org/2000/svg" xmlns:xlink="http://www.w3.org/1999/xlink" x="0px" y="0px" viewBox="0 0 256 256" enable-background="new 0 0 256 256" xml:space="preserve">
<metadata> Svg Vector Icons : http://www.onlinewebfonts.com/icon </metadata>
<g><g><g><path fill="#16295d" d="M120.9,60.6c-8.8,3-14.7,8.8-17.6,17.1c-1.7,5.1-1.5,12.6,0.6,18c1.9,5.1,7.5,10.9,12.9,13.6c3.9,1.8,4.4,2,11.2,2c6.7,0,7.3-0.1,11.2-2c5.4-2.7,11-8.5,12.9-13.6c2.1-5.4,2.3-12.9,0.6-18c-2.4-7.2-7-12.4-14.1-15.7c-3.5-1.7-4.9-2-9.6-2.1C125.5,59.8,122.5,60.1,120.9,60.6z"/><path fill="#16295d" d="M51.2,77.9c-7.9,1.9-14.3,7.1-17.8,14.4c-1.8,3.9-2,4.6-2,11c0,6.6,0.1,6.9,2.3,11.5c10.4,21.1,41,18.6,48-3.9c2.3-7.6,0.9-16.3-3.7-22.8C72,79.5,61.3,75.4,51.2,77.9z"/><path fill="#16295d" d="M193,77.9c-12.8,3.2-20.8,14.2-19.9,27.6c1.2,18.1,20.8,29.2,37.4,21.1c4.7-2.3,9.6-7.3,12-12.4c1.8-3.9,2-4.6,2-11c0-6.4-0.1-7-2-11C217.2,81.1,204.8,75,193,77.9z"/><path fill="#16295d" d="M119.2,116.5c-8.2,1.5-15.4,4.4-21.8,9c-4.1,2.8-10.1,9.1-10.1,10.4c0,0.4,1.4,1.7,3,2.8c3.9,2.5,10.4,9.2,13.2,13.9c3.5,5.7,5.4,12.5,5.9,19.8l0.3,6.4H128h18.3l0.3-6.4c0.4-7.3,2.4-14.1,5.9-19.8c2.8-4.6,9.1-11.3,13.1-14c1.7-1.2,3.1-2.4,3.1-2.8c0-1.2-6.2-7.5-10.1-10.3c-8.8-6.3-17.3-9-28.7-9.3C125.6,116.1,120.8,116.2,119.2,116.5z"/><path fill="#16295d" d="M50,133.8c-15.8,2.1-30,11.3-36,23.3c-3.1,6.3-4,9.8-4,16.4c-0.1,13.3,5,19.2,18.4,21.6c7.5,1.3,50,1.3,57.3,0c7-1.2,12.4-4.1,14.9-8c2.7-3.9,3.5-7,3.5-13.6c0.1-21.3-19.1-38.5-44.6-40C56.7,133.4,52.4,133.5,50,133.8z"/><path fill="#16295d" d="M192.7,133.8c-19.5,2.3-35,14.2-39.8,30.5c-1.3,4.3-1.5,13.4-0.4,17.4c2.2,7.4,8,11.8,18.2,13.5c7.8,1.4,55.1,0.9,60-0.5c11.3-3.4,15.3-8.9,15.2-21.1c0-15-8.7-27.6-24-34.9c-5.7-2.7-10.1-4-17.2-4.9C199.4,133.1,198.6,133.1,192.7,133.8z"/></g></g></g>
</svg>